<mxfile host="Electron" agent="Mozilla/5.0 (Windows NT 10.0; Win64; x64) AppleWebKit/537.36 (KHTML, like Gecko) draw.io/27.0.9 Chrome/134.0.6998.205 Electron/35.4.0 Safari/537.36" version="27.0.9">
  <diagram name="Page-1" id="ufV0ra_Wyfjgn9r8Td5s">
    <mxGraphModel dx="2066" dy="1209" grid="1" gridSize="10" guides="1" tooltips="1" connect="1" arrows="1" fold="1" page="1" pageScale="1" pageWidth="850" pageHeight="1100" math="0" shadow="0">
      <root>
        <mxCell id="0" />
        <mxCell id="1" parent="0" />
        <mxCell id="a_UtQKTKPtWJyf5df982-2" value="" style="html=1;verticalAlign=bottom;startArrow=circle;startFill=1;endArrow=open;startSize=6;endSize=8;curved=0;rounded=0;strokeWidth=3;" edge="1" parent="1" target="a_UtQKTKPtWJyf5df982-3">
          <mxGeometry width="80" relative="1" as="geometry">
            <mxPoint x="440" y="210" as="sourcePoint" />
            <mxPoint x="470" y="620" as="targetPoint" />
          </mxGeometry>
        </mxCell>
        <mxCell id="a_UtQKTKPtWJyf5df982-7" style="edgeStyle=orthogonalEdgeStyle;rounded=0;orthogonalLoop=1;jettySize=auto;html=1;exitX=0;exitY=0.5;exitDx=0;exitDy=0;entryX=0.5;entryY=0;entryDx=0;entryDy=0;strokeWidth=3;" edge="1" parent="1" source="a_UtQKTKPtWJyf5df982-3" target="a_UtQKTKPtWJyf5df982-6">
          <mxGeometry relative="1" as="geometry">
            <Array as="points">
              <mxPoint x="260" y="320" />
            </Array>
          </mxGeometry>
        </mxCell>
        <mxCell id="a_UtQKTKPtWJyf5df982-15" value="&lt;font face=&quot;Times New Roman&quot;&gt;Yes&lt;/font&gt;" style="edgeLabel;html=1;align=center;verticalAlign=middle;resizable=0;points=[];" vertex="1" connectable="0" parent="a_UtQKTKPtWJyf5df982-7">
          <mxGeometry x="-0.3067" y="-1" relative="1" as="geometry">
            <mxPoint as="offset" />
          </mxGeometry>
        </mxCell>
        <mxCell id="a_UtQKTKPtWJyf5df982-10" style="edgeStyle=orthogonalEdgeStyle;rounded=0;orthogonalLoop=1;jettySize=auto;html=1;exitX=1;exitY=0.5;exitDx=0;exitDy=0;strokeWidth=3;" edge="1" parent="1" source="a_UtQKTKPtWJyf5df982-3" target="a_UtQKTKPtWJyf5df982-11">
          <mxGeometry relative="1" as="geometry">
            <mxPoint x="610" y="400" as="targetPoint" />
          </mxGeometry>
        </mxCell>
        <mxCell id="a_UtQKTKPtWJyf5df982-16" value="&lt;font face=&quot;Times New Roman&quot;&gt;No&lt;/font&gt;" style="edgeLabel;html=1;align=center;verticalAlign=middle;resizable=0;points=[];" vertex="1" connectable="0" parent="a_UtQKTKPtWJyf5df982-10">
          <mxGeometry x="-0.2387" relative="1" as="geometry">
            <mxPoint as="offset" />
          </mxGeometry>
        </mxCell>
        <mxCell id="a_UtQKTKPtWJyf5df982-3" value="Emergency vehicle&amp;nbsp;&lt;div&gt;detected&lt;/div&gt;" style="rhombus;whiteSpace=wrap;html=1;strokeWidth=3;" vertex="1" parent="1">
          <mxGeometry x="360" y="280" width="160" height="80" as="geometry" />
        </mxCell>
        <mxCell id="a_UtQKTKPtWJyf5df982-5" value="&lt;font face=&quot;Times New Roman&quot;&gt;Emergency traffic signal goes on for all lanes&lt;/font&gt;" style="rounded=1;whiteSpace=wrap;html=1;strokeWidth=3;" vertex="1" parent="1">
          <mxGeometry x="200" y="540" width="120" height="60" as="geometry" />
        </mxCell>
        <mxCell id="a_UtQKTKPtWJyf5df982-8" style="edgeStyle=orthogonalEdgeStyle;rounded=0;orthogonalLoop=1;jettySize=auto;html=1;exitX=0.5;exitY=1;exitDx=0;exitDy=0;entryX=0.5;entryY=0;entryDx=0;entryDy=0;strokeWidth=3;" edge="1" parent="1" source="a_UtQKTKPtWJyf5df982-6" target="a_UtQKTKPtWJyf5df982-5">
          <mxGeometry relative="1" as="geometry" />
        </mxCell>
        <mxCell id="a_UtQKTKPtWJyf5df982-6" value="&lt;font face=&quot;Times New Roman&quot;&gt;Traffic light turns yellow for all lanes&lt;/font&gt;" style="rounded=1;whiteSpace=wrap;html=1;strokeWidth=3;" vertex="1" parent="1">
          <mxGeometry x="200" y="370" width="120" height="60" as="geometry" />
        </mxCell>
        <mxCell id="a_UtQKTKPtWJyf5df982-11" value="" style="ellipse;html=1;shape=endState;fillColor=#000000;strokeColor=light-dark(#070303, #ff9090);" vertex="1" parent="1">
          <mxGeometry x="595" y="385" width="30" height="30" as="geometry" />
        </mxCell>
        <mxCell id="a_UtQKTKPtWJyf5df982-12" value="" style="ellipse;html=1;shape=endState;fillColor=#000000;strokeColor=light-dark(#120808, #ff9090);" vertex="1" parent="1">
          <mxGeometry x="245" y="660" width="30" height="30" as="geometry" />
        </mxCell>
        <mxCell id="a_UtQKTKPtWJyf5df982-13" style="edgeStyle=orthogonalEdgeStyle;rounded=0;orthogonalLoop=1;jettySize=auto;html=1;exitX=0.5;exitY=1;exitDx=0;exitDy=0;entryX=0.5;entryY=0.233;entryDx=0;entryDy=0;entryPerimeter=0;strokeWidth=3;" edge="1" parent="1" source="a_UtQKTKPtWJyf5df982-5" target="a_UtQKTKPtWJyf5df982-12">
          <mxGeometry relative="1" as="geometry" />
        </mxCell>
        <mxCell id="a_UtQKTKPtWJyf5df982-17" value="&lt;font face=&quot;Times New Roman&quot;&gt;t=5s&lt;/font&gt;" style="text;html=1;align=center;verticalAlign=middle;resizable=0;points=[];autosize=1;strokeColor=none;fillColor=none;" vertex="1" parent="1">
          <mxGeometry x="270" y="470" width="40" height="30" as="geometry" />
        </mxCell>
        <mxCell id="a_UtQKTKPtWJyf5df982-18" value="&lt;font face=&quot;Times New Roman&quot;&gt;Wait till emergency vehicle is gone&lt;/font&gt;" style="text;html=1;align=center;verticalAlign=middle;resizable=0;points=[];autosize=1;strokeColor=none;fillColor=none;" vertex="1" parent="1">
          <mxGeometry x="270" y="618" width="190" height="30" as="geometry" />
        </mxCell>
      </root>
    </mxGraphModel>
  </diagram>
</mxfile>
